<svg width="1512" height="88" viewBox="0 0 1512 88" fill="none" xmlns="http://www.w3.org/2000/svg">
<path d="M1512 68.5C1468.7 55.8871 1451.4 34.5484 1316.5 34.5484C1199.83 34.5484 1136.9 61.568 1056 80.5C1020 80.5 981.778 80.5 932 80.5M932 80.5C863.175 80.5 826.402 88.6108 791.5 76.9997M932 80.5L791.5 76.9997M0 1C0 1 106.882 77.5 233 77.5C359.118 77.5 461.246 43 576.5 43C699.042 43 744.481 61.3575 791.5 76.9997" stroke="white" stroke-linecap="round"/>
<path d="M248.457 45.0242C113.554 45.0242 43.299 70.8065 0 77.1129V87.5H1512V41.5C1512 41.5 1396.75 77.1129 1270.63 77.1129C1144.51 77.1129 1085.94 54.8548 970.684 54.8548C757.181 54.8548 763.794 77.1129 602.249 77.1129C440.705 77.1129 417.087 45.0242 248.457 45.0242Z" fill="white"/>
</svg>
