<svg width="533" height="533" viewBox="0 0 533 533" fill="none" xmlns="http://www.w3.org/2000/svg">
<g opacity="0.5">
<path opacity="0.1" fill-rule="evenodd" clip-rule="evenodd" d="M266.5 467.632C377.582 467.632 467.632 377.582 467.632 266.5C467.632 155.418 377.582 65.3679 266.5 65.3679C155.418 65.3679 65.3679 155.418 65.3679 266.5C65.3679 377.582 155.418 467.632 266.5 467.632ZM266.5 533C413.684 533 533 413.684 533 266.5C533 119.316 413.684 0 266.5 0C119.316 0 0 119.316 0 266.5C0 413.684 119.316 533 266.5 533Z" fill="white"/>
<path opacity="0.1" fill-rule="evenodd" clip-rule="evenodd" d="M266.5 409.505C345.479 409.505 409.505 345.479 409.505 266.5C409.505 187.521 345.479 123.495 266.5 123.495C187.521 123.495 123.495 187.521 123.495 266.5C123.495 345.479 187.521 409.505 266.5 409.505ZM266.5 425.604C354.371 425.604 425.604 354.371 425.604 266.5C425.604 178.629 354.371 107.396 266.5 107.396C178.629 107.396 107.396 178.629 107.396 266.5C107.396 354.371 178.629 425.604 266.5 425.604Z" fill="white"/>
</g>
</svg>
