<svg width="85" height="139" viewBox="0 0 85 139" fill="none" xmlns="http://www.w3.org/2000/svg">
<path d="M-46.1038 6.41354C-44.5043 6.41354 -43.2076 5.10901 -43.2076 3.4998C-43.2076 1.89065 -44.5043 0.586121 -46.1038 0.586121C-47.7034 0.586121 -49 1.89065 -49 3.4998C-49 5.10901 -47.7034 6.41354 -46.1038 6.41354Z" fill="#143588"/>
<path d="M-46.1038 22.9338C-44.5043 22.9338 -43.2076 21.6293 -43.2076 20.02C-43.2076 18.4109 -44.5043 17.1064 -46.1038 17.1064C-47.7034 17.1064 -49 18.4109 -49 20.02C-49 21.6293 -47.7034 22.9338 -46.1038 22.9338Z" fill="#143588"/>
<path d="M-43.2076 36.5402C-43.2076 38.1494 -44.5043 39.454 -46.1038 39.454C-47.7034 39.454 -49 38.1494 -49 36.5402C-49 34.9311 -47.7034 33.6265 -46.1038 33.6265C-44.5043 33.6265 -43.2076 34.9311 -43.2076 36.5402Z" fill="#143588"/>
<path d="M-46.1038 55.9742C-44.5043 55.9742 -43.2076 54.6697 -43.2076 53.0605C-43.2076 51.4513 -44.5043 50.1468 -46.1038 50.1468C-47.7034 50.1468 -49 51.4513 -49 53.0605C-49 54.6697 -47.7034 55.9742 -46.1038 55.9742Z" fill="#143588"/>
<path d="M-43.2076 69.5806C-43.2076 71.1899 -44.5043 72.4944 -46.1038 72.4944C-47.7034 72.4944 -49 71.1899 -49 69.5806C-49 67.9715 -47.7034 66.667 -46.1038 66.667C-44.5043 66.667 -43.2076 67.9715 -43.2076 69.5806Z" fill="#143588"/>
<path d="M-46.1038 89.0146C-44.5043 89.0146 -43.2076 87.7101 -43.2076 86.1009C-43.2076 84.4917 -44.5043 83.1872 -46.1038 83.1872C-47.7034 83.1872 -49 84.4917 -49 86.1009C-49 87.7101 -47.7034 89.0146 -46.1038 89.0146Z" fill="#143588"/>
<path d="M-43.2076 102.621C-43.2076 104.23 -44.5043 105.535 -46.1038 105.535C-47.7034 105.535 -49 104.23 -49 102.621C-49 101.012 -47.7034 99.7074 -46.1038 99.7074C-44.5043 99.7074 -43.2076 101.012 -43.2076 102.621Z" fill="#143588"/>
<path d="M-46.1038 122.055C-44.5043 122.055 -43.2076 120.751 -43.2076 119.141C-43.2076 117.532 -44.5043 116.228 -46.1038 116.228C-47.7034 116.228 -49 117.532 -49 119.141C-49 120.751 -47.7034 122.055 -46.1038 122.055Z" fill="#143588"/>
<path d="M-43.2076 135.662C-43.2076 137.271 -44.5043 138.575 -46.1038 138.575C-47.7034 138.575 -49 137.271 -49 135.662C-49 134.052 -47.7034 132.748 -46.1038 132.748C-44.5043 132.748 -43.2076 134.052 -43.2076 135.662Z" fill="#143588"/>
<path d="M-27.9114 6.41354C-26.3119 6.41354 -25.0153 5.10901 -25.0153 3.4998C-25.0153 1.89065 -26.3119 0.586121 -27.9114 0.586121C-29.511 0.586121 -30.8076 1.89065 -30.8076 3.4998C-30.8076 5.10901 -29.511 6.41354 -27.9114 6.41354Z" fill="#143588"/>
<path d="M-25.0153 20.02C-25.0153 21.6293 -26.3119 22.9338 -27.9114 22.9338C-29.511 22.9338 -30.8076 21.6293 -30.8076 20.02C-30.8076 18.4109 -29.511 17.1064 -27.9114 17.1064C-26.3119 17.1064 -25.0153 18.4109 -25.0153 20.02Z" fill="#143588"/>
<path d="M-27.9114 39.454C-26.3119 39.454 -25.0153 38.1494 -25.0153 36.5402C-25.0153 34.9311 -26.3119 33.6265 -27.9114 33.6265C-29.511 33.6265 -30.8076 34.9311 -30.8076 36.5402C-30.8076 38.1494 -29.511 39.454 -27.9114 39.454Z" fill="#143588"/>
<path d="M-25.0153 53.0605C-25.0153 54.6697 -26.3119 55.9742 -27.9114 55.9742C-29.511 55.9742 -30.8076 54.6697 -30.8076 53.0605C-30.8076 51.4513 -29.511 50.1468 -27.9114 50.1468C-26.3119 50.1468 -25.0153 51.4513 -25.0153 53.0605Z" fill="#143588"/>
<path d="M-27.9114 72.4944C-26.3119 72.4944 -25.0153 71.1899 -25.0153 69.5806C-25.0153 67.9715 -26.3119 66.667 -27.9114 66.667C-29.511 66.667 -30.8076 67.9715 -30.8076 69.5806C-30.8076 71.1899 -29.511 72.4944 -27.9114 72.4944Z" fill="#143588"/>
<path d="M-25.0153 86.1009C-25.0153 87.7101 -26.3119 89.0146 -27.9114 89.0146C-29.511 89.0146 -30.8076 87.7101 -30.8076 86.1009C-30.8076 84.4917 -29.511 83.1872 -27.9114 83.1872C-26.3119 83.1872 -25.0153 84.4917 -25.0153 86.1009Z" fill="#143588"/>
<path d="M-27.9114 105.535C-26.3119 105.535 -25.0153 104.23 -25.0153 102.621C-25.0153 101.012 -26.3119 99.7074 -27.9114 99.7074C-29.511 99.7074 -30.8076 101.012 -30.8076 102.621C-30.8076 104.23 -29.511 105.535 -27.9114 105.535Z" fill="#143588"/>
<path d="M-25.0153 119.141C-25.0153 120.751 -26.3119 122.055 -27.9114 122.055C-29.511 122.055 -30.8076 120.751 -30.8076 119.141C-30.8076 117.532 -29.511 116.228 -27.9114 116.228C-26.3119 116.228 -25.0153 117.532 -25.0153 119.141Z" fill="#143588"/>
<path d="M-27.9114 138.575C-26.3119 138.575 -25.0153 137.271 -25.0153 135.662C-25.0153 134.052 -26.3119 132.748 -27.9114 132.748C-29.511 132.748 -30.8076 134.052 -30.8076 135.662C-30.8076 137.271 -29.511 138.575 -27.9114 138.575Z" fill="#143588"/>
<path d="M-6.82288 3.4998C-6.82288 5.10901 -8.11951 6.41354 -9.71899 6.41354C-11.3186 6.41354 -12.6152 5.10901 -12.6152 3.4998C-12.6152 1.89065 -11.3186 0.586121 -9.71899 0.586121C-8.11951 0.586121 -6.82288 1.89065 -6.82288 3.4998Z" fill="#143588"/>
<path d="M-9.71899 22.9338C-8.11951 22.9338 -6.82288 21.6293 -6.82288 20.02C-6.82288 18.4109 -8.11951 17.1064 -9.71899 17.1064C-11.3186 17.1064 -12.6152 18.4109 -12.6152 20.02C-12.6152 21.6293 -11.3186 22.9338 -9.71899 22.9338Z" fill="#143588"/>
<path d="M-6.82288 36.5402C-6.82288 38.1494 -8.11951 39.454 -9.71899 39.454C-11.3186 39.454 -12.6152 38.1494 -12.6152 36.5402C-12.6152 34.9311 -11.3186 33.6265 -9.71899 33.6265C-8.11951 33.6265 -6.82288 34.9311 -6.82288 36.5402Z" fill="#143588"/>
<path d="M-9.71899 55.9742C-8.11951 55.9742 -6.82288 54.6697 -6.82288 53.0605C-6.82288 51.4513 -8.11951 50.1468 -9.71899 50.1468C-11.3186 50.1468 -12.6152 51.4513 -12.6152 53.0605C-12.6152 54.6697 -11.3186 55.9742 -9.71899 55.9742Z" fill="#143588"/>
<path d="M-6.82288 69.5806C-6.82288 71.1899 -8.11951 72.4944 -9.71899 72.4944C-11.3186 72.4944 -12.6152 71.1899 -12.6152 69.5806C-12.6152 67.9715 -11.3186 66.667 -9.71899 66.667C-8.11951 66.667 -6.82288 67.9715 -6.82288 69.5806Z" fill="#143588"/>
<path d="M-9.71899 89.0146C-8.11951 89.0146 -6.82288 87.7101 -6.82288 86.1009C-6.82288 84.4917 -8.11951 83.1872 -9.71899 83.1872C-11.3186 83.1872 -12.6152 84.4917 -12.6152 86.1009C-12.6152 87.7101 -11.3186 89.0146 -9.71899 89.0146Z" fill="#143588"/>
<path d="M-6.82288 102.621C-6.82288 104.23 -8.11951 105.535 -9.71899 105.535C-11.3186 105.535 -12.6152 104.23 -12.6152 102.621C-12.6152 101.012 -11.3186 99.7074 -9.71899 99.7074C-8.11951 99.7074 -6.82288 101.012 -6.82288 102.621Z" fill="#143588"/>
<path d="M-9.71899 122.055C-8.11951 122.055 -6.82288 120.751 -6.82288 119.141C-6.82288 117.532 -8.11951 116.228 -9.71899 116.228C-11.3186 116.228 -12.6152 117.532 -12.6152 119.141C-12.6152 120.751 -11.3186 122.055 -9.71899 122.055Z" fill="#143588"/>
<path d="M-6.82288 135.662C-6.82288 137.271 -8.11951 138.575 -9.71899 138.575C-11.3186 138.575 -12.6152 137.271 -12.6152 135.662C-12.6152 134.052 -11.3186 132.748 -9.71899 132.748C-8.11951 132.748 -6.82288 134.052 -6.82288 135.662Z" fill="#143588"/>
<path d="M8.47351 6.41354C10.073 6.41354 11.3696 5.10901 11.3696 3.4998C11.3696 1.89065 10.073 0.586121 8.47351 0.586121C6.8739 0.586121 5.57727 1.89065 5.57727 3.4998C5.57727 5.10901 6.8739 6.41354 8.47351 6.41354Z" fill="#143588"/>
<path d="M11.3696 20.02C11.3696 21.6293 10.073 22.9338 8.47351 22.9338C6.8739 22.9338 5.57727 21.6293 5.57727 20.02C5.57727 18.4109 6.8739 17.1064 8.47351 17.1064C10.073 17.1064 11.3696 18.4109 11.3696 20.02Z" fill="#143588"/>
<path d="M8.47351 39.454C10.073 39.454 11.3696 38.1494 11.3696 36.5402C11.3696 34.9311 10.073 33.6265 8.47351 33.6265C6.8739 33.6265 5.57727 34.9311 5.57727 36.5402C5.57727 38.1494 6.8739 39.454 8.47351 39.454Z" fill="#143588"/>
<path d="M11.3696 53.0605C11.3696 54.6697 10.073 55.9742 8.47351 55.9742C6.8739 55.9742 5.57727 54.6697 5.57727 53.0605C5.57727 51.4513 6.8739 50.1468 8.47351 50.1468C10.073 50.1468 11.3696 51.4513 11.3696 53.0605Z" fill="#143588"/>
<path d="M8.47351 72.4944C10.073 72.4944 11.3696 71.1899 11.3696 69.5806C11.3696 67.9715 10.073 66.667 8.47351 66.667C6.8739 66.667 5.57727 67.9715 5.57727 69.5806C5.57727 71.1899 6.8739 72.4944 8.47351 72.4944Z" fill="#143588"/>
<path d="M11.3696 86.1009C11.3696 87.7101 10.073 89.0146 8.47351 89.0146C6.8739 89.0146 5.57727 87.7101 5.57727 86.1009C5.57727 84.4917 6.8739 83.1872 8.47351 83.1872C10.073 83.1872 11.3696 84.4917 11.3696 86.1009Z" fill="#143588"/>
<path d="M8.47351 105.535C10.073 105.535 11.3696 104.23 11.3696 102.621C11.3696 101.012 10.073 99.7074 8.47351 99.7074C6.8739 99.7074 5.57727 101.012 5.57727 102.621C5.57727 104.23 6.8739 105.535 8.47351 105.535Z" fill="#143588"/>
<path d="M11.3696 119.141C11.3696 120.751 10.073 122.055 8.47351 122.055C6.8739 122.055 5.57727 120.751 5.57727 119.141C5.57727 117.532 6.8739 116.228 8.47351 116.228C10.073 116.228 11.3696 117.532 11.3696 119.141Z" fill="#143588"/>
<path d="M8.47351 138.575C10.073 138.575 11.3696 137.271 11.3696 135.662C11.3696 134.052 10.073 132.748 8.47351 132.748C6.8739 132.748 5.57727 134.052 5.57727 135.662C5.57727 137.271 6.8739 138.575 8.47351 138.575Z" fill="#143588"/>
<path d="M29.5619 3.4998C29.5619 5.10901 28.2653 6.41354 26.6658 6.41354C25.0662 6.41354 23.7695 5.10901 23.7695 3.4998C23.7695 1.89065 25.0662 0.586121 26.6658 0.586121C28.2653 0.586121 29.5619 1.89065 29.5619 3.4998Z" fill="#143588"/>
<path d="M26.6658 22.9338C28.2653 22.9338 29.5619 21.6293 29.5619 20.02C29.5619 18.4109 28.2653 17.1064 26.6658 17.1064C25.0662 17.1064 23.7695 18.4109 23.7695 20.02C23.7695 21.6293 25.0662 22.9338 26.6658 22.9338Z" fill="#143588"/>
<path d="M29.5619 36.5402C29.5619 38.1494 28.2653 39.454 26.6658 39.454C25.0662 39.454 23.7695 38.1494 23.7695 36.5402C23.7695 34.9311 25.0662 33.6265 26.6658 33.6265C28.2653 33.6265 29.5619 34.9311 29.5619 36.5402Z" fill="#143588"/>
<path d="M26.6658 55.9742C28.2653 55.9742 29.5619 54.6697 29.5619 53.0605C29.5619 51.4513 28.2653 50.1468 26.6658 50.1468C25.0662 50.1468 23.7695 51.4513 23.7695 53.0605C23.7695 54.6697 25.0662 55.9742 26.6658 55.9742Z" fill="#143588"/>
<path d="M29.5619 69.5806C29.5619 71.1899 28.2653 72.4944 26.6658 72.4944C25.0662 72.4944 23.7695 71.1899 23.7695 69.5806C23.7695 67.9715 25.0662 66.667 26.6658 66.667C28.2653 66.667 29.5619 67.9715 29.5619 69.5806Z" fill="#143588"/>
<path d="M26.6658 89.0146C28.2653 89.0146 29.5619 87.7101 29.5619 86.1009C29.5619 84.4917 28.2653 83.1872 26.6658 83.1872C25.0662 83.1872 23.7695 84.4917 23.7695 86.1009C23.7695 87.7101 25.0662 89.0146 26.6658 89.0146Z" fill="#143588"/>
<path d="M29.5619 102.621C29.5619 104.23 28.2653 105.535 26.6658 105.535C25.0662 105.535 23.7695 104.23 23.7695 102.621C23.7695 101.012 25.0662 99.7074 26.6658 99.7074C28.2653 99.7074 29.5619 101.012 29.5619 102.621Z" fill="#143588"/>
<path d="M26.6658 122.055C28.2653 122.055 29.5619 120.751 29.5619 119.141C29.5619 117.532 28.2653 116.228 26.6658 116.228C25.0662 116.228 23.7695 117.532 23.7695 119.141C23.7695 120.751 25.0662 122.055 26.6658 122.055Z" fill="#143588"/>
<path d="M29.5619 135.662C29.5619 137.271 28.2653 138.575 26.6658 138.575C25.0662 138.575 23.7695 137.271 23.7695 135.662C23.7695 134.052 25.0662 132.748 26.6658 132.748C28.2653 132.748 29.5619 134.052 29.5619 135.662Z" fill="#143588"/>
<path d="M44.8583 6.41354C46.4578 6.41354 47.7544 5.10901 47.7544 3.4998C47.7544 1.89065 46.4578 0.586121 44.8583 0.586121C43.2587 0.586121 41.962 1.89065 41.962 3.4998C41.962 5.10901 43.2587 6.41354 44.8583 6.41354Z" fill="#143588"/>
<path d="M47.7544 20.02C47.7544 21.6293 46.4578 22.9338 44.8583 22.9338C43.2587 22.9338 41.962 21.6293 41.962 20.02C41.962 18.4109 43.2587 17.1064 44.8583 17.1064C46.4578 17.1064 47.7544 18.4109 47.7544 20.02Z" fill="#143588"/>
<path d="M44.8583 39.454C46.4578 39.454 47.7544 38.1494 47.7544 36.5402C47.7544 34.9311 46.4578 33.6265 44.8583 33.6265C43.2587 33.6265 41.962 34.9311 41.962 36.5402C41.962 38.1494 43.2587 39.454 44.8583 39.454Z" fill="#143588"/>
<path d="M47.7544 53.0605C47.7544 54.6697 46.4578 55.9742 44.8583 55.9742C43.2587 55.9742 41.962 54.6697 41.962 53.0605C41.962 51.4513 43.2587 50.1468 44.8583 50.1468C46.4578 50.1468 47.7544 51.4513 47.7544 53.0605Z" fill="#143588"/>
<path d="M44.8583 72.4944C46.4578 72.4944 47.7544 71.1899 47.7544 69.5806C47.7544 67.9715 46.4578 66.667 44.8583 66.667C43.2587 66.667 41.962 67.9715 41.962 69.5806C41.962 71.1899 43.2587 72.4944 44.8583 72.4944Z" fill="#143588"/>
<path d="M47.7544 86.1009C47.7544 87.7101 46.4578 89.0146 44.8583 89.0146C43.2587 89.0146 41.962 87.7101 41.962 86.1009C41.962 84.4917 43.2587 83.1872 44.8583 83.1872C46.4578 83.1872 47.7544 84.4917 47.7544 86.1009Z" fill="#143588"/>
<path d="M44.8583 105.535C46.4578 105.535 47.7544 104.23 47.7544 102.621C47.7544 101.012 46.4578 99.7074 44.8583 99.7074C43.2587 99.7074 41.962 101.012 41.962 102.621C41.962 104.23 43.2587 105.535 44.8583 105.535Z" fill="#143588"/>
<path d="M47.7544 119.141C47.7544 120.751 46.4578 122.055 44.8583 122.055C43.2587 122.055 41.962 120.751 41.962 119.141C41.962 117.532 43.2587 116.228 44.8583 116.228C46.4578 116.228 47.7544 117.532 47.7544 119.141Z" fill="#143588"/>
<path d="M44.8583 138.575C46.4578 138.575 47.7544 137.271 47.7544 135.662C47.7544 134.052 46.4578 132.748 44.8583 132.748C43.2587 132.748 41.962 134.052 41.962 135.662C41.962 137.271 43.2587 138.575 44.8583 138.575Z" fill="#143588"/>
<path d="M65.9468 3.4998C65.9468 5.10901 64.6501 6.41354 63.0507 6.41354C61.451 6.41354 60.1544 5.10901 60.1544 3.4998C60.1544 1.89065 61.451 0.586121 63.0507 0.586121C64.6501 0.586121 65.9468 1.89065 65.9468 3.4998Z" fill="#143588"/>
<path d="M63.0507 22.9338C64.6501 22.9338 65.9468 21.6293 65.9468 20.02C65.9468 18.4109 64.6501 17.1064 63.0507 17.1064C61.451 17.1064 60.1544 18.4109 60.1544 20.02C60.1544 21.6293 61.451 22.9338 63.0507 22.9338Z" fill="#143588"/>
<path d="M65.9468 36.5402C65.9468 38.1494 64.6501 39.454 63.0507 39.454C61.451 39.454 60.1544 38.1494 60.1544 36.5402C60.1544 34.9311 61.451 33.6265 63.0507 33.6265C64.6501 33.6265 65.9468 34.9311 65.9468 36.5402Z" fill="#143588"/>
<path d="M63.0507 55.9742C64.6501 55.9742 65.9468 54.6697 65.9468 53.0605C65.9468 51.4513 64.6501 50.1468 63.0507 50.1468C61.451 50.1468 60.1544 51.4513 60.1544 53.0605C60.1544 54.6697 61.451 55.9742 63.0507 55.9742Z" fill="#143588"/>
<path d="M65.9468 69.5806C65.9468 71.1899 64.6501 72.4944 63.0507 72.4944C61.451 72.4944 60.1544 71.1899 60.1544 69.5806C60.1544 67.9715 61.451 66.667 63.0507 66.667C64.6501 66.667 65.9468 67.9715 65.9468 69.5806Z" fill="#143588"/>
<path d="M63.0507 89.0146C64.6501 89.0146 65.9468 87.7101 65.9468 86.1009C65.9468 84.4917 64.6501 83.1872 63.0507 83.1872C61.451 83.1872 60.1544 84.4917 60.1544 86.1009C60.1544 87.7101 61.451 89.0146 63.0507 89.0146Z" fill="#143588"/>
<path d="M65.9468 102.621C65.9468 104.23 64.6501 105.535 63.0507 105.535C61.451 105.535 60.1544 104.23 60.1544 102.621C60.1544 101.012 61.451 99.7074 63.0507 99.7074C64.6501 99.7074 65.9468 101.012 65.9468 102.621Z" fill="#143588"/>
<path d="M63.0507 122.055C64.6501 122.055 65.9468 120.751 65.9468 119.141C65.9468 117.532 64.6501 116.228 63.0507 116.228C61.451 116.228 60.1544 117.532 60.1544 119.141C60.1544 120.751 61.451 122.055 63.0507 122.055Z" fill="#143588"/>
<path d="M65.9468 135.662C65.9468 137.271 64.6501 138.575 63.0507 138.575C61.451 138.575 60.1544 137.271 60.1544 135.662C60.1544 134.052 61.451 132.748 63.0507 132.748C64.6501 132.748 65.9468 134.052 65.9468 135.662Z" fill="#143588"/>
<path d="M81.243 6.41354C82.8425 6.41354 84.1392 5.10901 84.1392 3.4998C84.1392 1.89065 82.8425 0.586121 81.243 0.586121C79.6434 0.586121 78.3468 1.89065 78.3468 3.4998C78.3468 5.10901 79.6434 6.41354 81.243 6.41354Z" fill="#143588"/>
<path d="M84.1392 20.02C84.1392 21.6293 82.8425 22.9338 81.243 22.9338C79.6434 22.9338 78.3468 21.6293 78.3468 20.02C78.3468 18.4109 79.6434 17.1064 81.243 17.1064C82.8425 17.1064 84.1392 18.4109 84.1392 20.02Z" fill="#143588"/>
<path d="M81.243 39.454C82.8425 39.454 84.1392 38.1494 84.1392 36.5402C84.1392 34.9311 82.8425 33.6265 81.243 33.6265C79.6434 33.6265 78.3468 34.9311 78.3468 36.5402C78.3468 38.1494 79.6434 39.454 81.243 39.454Z" fill="#143588"/>
<path d="M84.1392 53.0605C84.1392 54.6697 82.8425 55.9742 81.243 55.9742C79.6434 55.9742 78.3468 54.6697 78.3468 53.0605C78.3468 51.4513 79.6434 50.1468 81.243 50.1468C82.8425 50.1468 84.1392 51.4513 84.1392 53.0605Z" fill="#143588"/>
<path d="M81.243 72.4944C82.8425 72.4944 84.1392 71.1899 84.1392 69.5806C84.1392 67.9715 82.8425 66.667 81.243 66.667C79.6434 66.667 78.3468 67.9715 78.3468 69.5806C78.3468 71.1899 79.6434 72.4944 81.243 72.4944Z" fill="#143588"/>
<path d="M84.1392 86.1009C84.1392 87.7101 82.8425 89.0146 81.243 89.0146C79.6434 89.0146 78.3468 87.7101 78.3468 86.1009C78.3468 84.4917 79.6434 83.1872 81.243 83.1872C82.8425 83.1872 84.1392 84.4917 84.1392 86.1009Z" fill="#143588"/>
<path d="M81.243 105.535C82.8425 105.535 84.1392 104.23 84.1392 102.621C84.1392 101.012 82.8425 99.7074 81.243 99.7074C79.6434 99.7074 78.3468 101.012 78.3468 102.621C78.3468 104.23 79.6434 105.535 81.243 105.535Z" fill="#143588"/>
<path d="M84.1392 119.141C84.1392 120.751 82.8425 122.055 81.243 122.055C79.6434 122.055 78.3468 120.751 78.3468 119.141C78.3468 117.532 79.6434 116.228 81.243 116.228C82.8425 116.228 84.1392 117.532 84.1392 119.141Z" fill="#143588"/>
<path d="M81.243 138.575C82.8425 138.575 84.1392 137.271 84.1392 135.662C84.1392 134.052 82.8425 132.748 81.243 132.748C79.6434 132.748 78.3468 134.052 78.3468 135.662C78.3468 137.271 79.6434 138.575 81.243 138.575Z" fill="#143588"/>
</svg>
