<svg width="514" height="359" viewBox="0 0 514 359" fill="none" xmlns="http://www.w3.org/2000/svg">
<path d="M355.479 266.647C352.267 273.999 353.406 282.791 352.341 290.646C351.833 294.39 350.969 300.364 348.229 303.306C342.664 309.284 346.663 313.07 347.634 320.48C348.248 325.164 342.464 329.754 338.33 331.048C332.352 332.92 329.662 330.058 324.102 330.058C322.356 330.058 318.476 329.02 318.476 331.544C318.476 333.598 318.429 334.021 316.312 334.021C310.381 334.021 310.686 335.562 310.686 340.956C310.686 346.955 303.771 349.483 298.892 351.965C290.854 356.054 286.486 357.166 277.362 356.809C272.117 356.604 273.27 345.36 270.762 345.36C269.175 345.36 267.495 350.075 266.867 351.194C266.462 351.915 263.497 347.683 263.188 347.341C261.104 345.032 258.635 344.963 255.777 344.424C251.147 343.552 249.64 345.91 245.336 345.91C240.9 345.91 236.464 345.91 232.028 345.91C226.563 345.91 220.343 345.14 216.448 340.736C215.281 339.417 213.79 338.524 212.823 336.993C211.122 334.3 211.695 332.069 210.876 329.067C209.047 322.37 207.467 315.716 207.467 308.81C207.467 303.989 209.348 299.723 209.415 294.939C209.478 290.464 209.415 285.984 209.415 281.509C209.415 275.649 210.303 273.229 214.067 269.399C215.721 267.717 217.881 260.431 216.069 258.28C215.165 257.207 209.453 256.768 208.008 256.519C203.776 255.787 199.557 255.591 195.35 254.812C188.091 253.469 187.019 270.033 187.019 274.573C187.019 283.233 187.019 291.894 187.019 300.554C187.019 305.288 187.267 310.242 181.555 310.242C179.685 310.242 176.2 309.36 175.117 311.232C174.41 312.455 172.12 315.152 171.438 312.553C169.831 306.419 169.039 300.003 165.38 294.939C157.301 283.761 161.701 271.691 161.701 259.161C161.701 255.071 138.966 255.748 133.949 255.748C130.799 255.748 127.629 255.858 124.482 255.748C121.352 255.638 120.496 253.187 117.882 252.005C116.682 251.462 114.977 271.472 113.987 274.243C112.939 277.175 113.112 280.447 111.011 282.94C109.237 285.047 99.8771 283.49 97.4329 283.49C86.8205 283.49 76.177 284.481 65.6776 284.481C57.5684 284.481 44.2996 286.466 39.2239 277.545C34.604 269.426 55.4608 267.782 39.8731 264.61C35.9334 263.808 31.9774 262.499 28.2962 260.922C26.4164 260.117 23.9977 261.013 22.0208 260.647C15.8415 259.504 14.8116 258.14 11.7423 252.996C10.0148 250.101 9.07516 245.849 8.06366 242.647C6.2121 236.786 2.00472 229.695 2.00472 223.492C2.00472 221.017 1.68133 211.144 6.38663 212.208C10.6452 213.171 8.33324 219.995 14.4472 214.905C16.3054 213.358 17.0162 210.653 18.775 209.401C19.2974 209.029 22.6778 209.658 23.9684 209.181C25.9564 208.445 28.92 206.094 30.5683 204.722C34.4172 201.518 34.4666 207.199 38.6288 207.199C44.335 207.199 52.185 208.685 57.5089 206.208C61.1001 204.538 65.3176 201.639 68.9776 200.484C71.1108 199.81 74.1124 200.25 76.2267 200.263C85.2931 200.322 94.3245 200.966 103.384 201.199C107.734 201.311 112.416 202.075 116.421 200.263C120.237 198.538 123.333 193.583 125.888 190.355C127.419 188.422 130.086 187.713 131.514 185.897C132.959 184.06 141.295 185.402 143.416 185.402C147.488 185.402 152.265 184.658 156.291 185.622C165.882 187.918 165.388 180.038 168.95 172.301C172.667 164.228 181.642 157.774 183.178 149.182C183.539 147.163 190.201 138.39 192.374 137.898C197.743 136.685 206.354 139.517 211.579 141.036C222.149 144.109 233.477 145.272 244.362 146.54C251.927 147.422 262.967 152.784 264.919 142.852C265.737 138.69 267.282 135.117 269.247 131.403C271.787 126.603 273.016 121.259 274.224 115.991C275.065 112.321 276.143 108.414 277.578 104.927C278.825 101.895 281.473 99.6297 281.473 96.23C281.473 89.0201 280.666 82.9244 273.683 81.1479C268.673 79.8735 262.918 79.9645 258.157 77.8453C254.403 76.1742 253.908 68.9615 250.205 68.5428C241.335 67.54 232.442 79.7689 229.107 66.9465C228.24 63.6161 225.802 60.6988 222.29 60.5614C220.361 60.4859 217.621 61.1255 215.799 60.4513C213.56 59.6232 212.453 56.4614 209.848 55.4974C207.065 54.4679 204.395 51.3665 201.625 49.8829C199.645 48.8228 200.252 49.5526 198.109 49.5526C194.475 49.5526 189.795 46.1417 187.505 43.5528C186.598 42.5272 186.575 40.8947 185.558 39.9749C184.938 39.4145 183.984 40.0588 183.34 39.5346C181.134 37.7385 179.174 35.6232 176.848 33.865C174.108 31.7938 172.671 31.0079 169.491 30.8376C164.843 30.5887 165.704 22.9386 161.701 21.9204C156.877 20.6932 152.937 16.8504 152.937 12.0125C152.937 8.84618 155.136 7.6406 155.804 4.58153C156.357 2.05027 170.371 0.267208 171.438 2.71002C172.027 4.05646 172.949 5.95357 174.576 6.06772C179.477 6.41164 184.152 8.80686 188.966 9.0401C192.088 9.19139 195.614 9.61607 198.595 10.5813C202.123 11.7234 202.743 14.8624 205.52 16.7463C206.929 17.7023 208.38 18.438 209.848 19.3884C211.798 20.651 211.941 22.8734 213.797 24.3424C215.135 25.401 217.567 24.8928 219.153 24.8928C222.183 24.8928 223.748 27.0933 226.402 28.2505C232.772 31.0286 237.504 36.7739 244.578 39.3144C248.666 40.7824 252.63 39.3922 256.372 42.5069C257.802 43.6975 259.971 43.3427 261.511 44.2133C263.246 45.194 264.611 46.8814 266.38 47.6811C270.62 49.5987 274.187 51.7254 278.606 53.1305C282.363 54.3252 288.83 53.2731 291.968 55.8276C294.266 57.6985 297.274 57.589 300.191 57.589C306.314 57.589 305.831 55.8855 306.845 50.2131C307.238 48.0111 306.058 43.1681 308.251 42.6721C312 41.8246 315.777 41.0791 319.45 42.9473C322.621 44.5608 322.989 46.6903 327.24 46.6903C335.199 46.6903 342.705 39.7547 351.097 39.7547C354.509 39.7547 373.006 43.2596 373.006 39.3144C373.006 38.0416 369.806 30.5163 369.923 30.3972C373.658 26.5969 393.102 34.6797 397.566 35.7916C399.669 36.3151 412.586 38.1992 412.876 41.296C413.311 45.9447 413.389 47.6197 418.286 48.7269C422.287 49.6315 424.981 50.815 429.268 50.6535C432.546 50.5299 436.017 48.4801 439.222 48.6719C440.507 48.7488 442.792 52.884 443.063 54.1213C443.712 57.0966 447.743 58.1058 450.42 58.5248C457.329 59.6063 468.84 59.5649 475.251 56.8184C477.204 55.9816 478.172 57.0919 478.172 54.1763C478.172 52.4058 478.145 50.736 480.336 50.6535C485.769 50.4487 488.388 53.6636 489.803 47.1857C491.318 40.2488 493.154 41.5293 500.514 43.1675C502.839 43.6848 509.749 45.7161 511.496 43.9381C513.86 41.5327 506.4 48.5072 504.68 51.4241C502.356 55.3646 501.16 59.4554 499.378 63.5338C497.081 68.793 492.787 72.4987 488.396 75.9738C485.076 78.6016 482.893 84.2942 480.66 87.8633C478.006 92.1083 474.424 101.891 474.277 107.129C474.089 113.833 474.277 120.567 474.277 127.275C474.277 132.801 465.263 134.098 461.239 136.302C455.078 139.678 451.12 141.922 447.769 148.742C444.77 154.845 447.985 164.1 447.985 170.485C447.985 177.71 439.476 177.741 434.353 175.714C430.989 174.383 428.51 182.975 428.51 185.181C428.51 188.606 430.045 189.509 432.946 190.851C437.328 192.877 438.128 195.402 435.759 199.878C433.367 204.399 432.545 210.874 431.648 215.896C430.074 224.707 432.405 234.411 432.405 243.363C432.405 249.524 415.564 246.413 420.937 256.739C421.896 258.583 424.941 259.952 426.563 260.922C428.664 262.179 428.691 264.406 430.025 266.151C432.566 269.475 436.022 271.828 438.572 275.289C442.44 280.536 434.801 279.987 431.486 278.041C428.622 276.36 425.637 272.69 422.235 272.591C417.007 272.439 411.946 271.601 406.655 271.601C394.109 271.601 382.95 273.582 370.572 273.582C368.373 273.582 364.74 270.995 363.269 269.124C361.324 266.65 356.987 267.91 354.505 266.647" stroke="#143588" stroke-width="3" stroke-linecap="round"/>
<path d="M315.549 41.6522C312.021 41.2533 316.1 25.4257 316.1 23.7008C316.1 20.5002 317.119 17.4949 317.785 14.4446C318.343 11.8893 322.437 13.0498 323.268 11.3593" stroke="#143588" stroke-width="3" stroke-linecap="round"/>
<path d="M338.154 44.4572C338.154 41.7027 338.346 38.977 337.725 36.2918C337.264 34.2961 336.5 32.2204 336.5 30.1522C336.5 25.725 335.347 23.6122 333.192 19.774" stroke="#143588" stroke-width="3" stroke-linecap="round"/>
<path d="M404.314 37.1644C404.678 31.2334 406.519 25.8149 406.519 19.774" stroke="#143588" stroke-width="3" stroke-linecap="round"/>
<path d="M134.507 254.567C134.741 248.603 137.588 243.869 139.24 238.49C141.676 230.558 141.719 222.006 141.719 213.75C141.719 203.973 135.859 195.471 135.859 185.774" stroke="#143588" stroke-width="3" stroke-linecap="round"/>
<path d="M194.48 254.198C194.48 249.367 194.102 246.739 194.48 241.93C194.735 238.693 194.457 235.023 195.131 231.866C195.978 227.904 192.842 224.945 192.652 221.088C192.401 215.966 192.202 210.906 192.202 205.749C192.202 202.458 190.738 199.55 190.424 196.348C190.16 193.667 189.365 189.675 187.945 187.404C186.372 184.889 187.163 179.477 187.243 176.601C187.351 172.757 188.596 169.266 188.596 165.365C188.596 162.549 187.752 159.885 185.991 157.696C185.471 157.049 185.943 155.456 185.34 154.689C184.634 153.79 184.536 152.058 184.088 150.918" stroke="#143588" stroke-width="3" stroke-linecap="round"/>
<path d="M379.709 272.454C378.035 271.389 379.665 264.331 379.709 262.466C379.794 258.82 380.802 254.534 381.512 250.924C382.718 244.788 383.317 238.777 384.191 232.553C384.668 229.153 383.278 225.047 382.839 221.699C382.404 218.382 381.061 215.895 381.061 212.476C381.061 211.01 380.895 209.434 380.585 208.017C379.903 204.894 380.812 201.487 380.134 198.386C379.447 195.238 376.595 193.758 375.652 190.64C375.048 188.641 374.3 187.808 374.3 185.57C374.3 178.609 373.849 171.65 373.849 164.677C373.849 160.515 373.849 156.354 373.849 152.192C373.849 148.927 373.837 145.701 374.3 142.459C374.762 139.217 375.982 136.23 376.554 133.032C377.074 130.119 378.027 127.232 378.382 124.343C378.633 122.298 380.497 120.431 380.61 118.356C380.85 113.972 386.746 112.899 390.326 112.852C394.306 112.8 398.29 112.852 402.271 112.852C405.777 112.852 410.743 112.431 413.965 111.12C415.719 110.406 418.577 111.018 420.501 111.018C422.694 111.018 424.698 110.101 426.936 110.101C429.513 110.101 430.798 111.141 431.719 107.807C432.378 105.424 432.061 104.632 434.248 103.578C436.581 102.454 438.947 101.299 441.26 100.113C443.033 99.203 446.089 98.002 447.52 96.5457C449.174 94.8623 448.672 91.1557 448.672 89.0039C448.672 84.6309 449.122 80.3387 449.122 75.9585C449.122 73.9209 450.044 71.9477 451.026 70.2002C453.3 66.1496 457.687 63.8677 457.687 58.7346" stroke="#143588" stroke-width="3" stroke-linecap="round"/>
<path d="M404.313 112.259C403.889 107.516 402.016 104.606 400.894 100.036C400.823 99.7488 399.805 97.3056 399.692 97.2846C397.74 96.9235 396.881 96.76 395.685 95.1953C394.788 94.0213 392.78 93.1527 392.78 91.5518C392.78 90.622 392.415 89.8613 391.653 89.2587C390.15 88.0692 387.482 87.3799 386.495 85.5387C385.396 83.4883 385.568 81.7819 385.568 79.4237C385.568 73.6701 381.226 68.2587 377.004 64.7987C374.441 62.698 375.076 58.9676 373.849 56.2377C373.338 55.0989 373.071 53.1049 372.948 51.8552C372.807 50.4181 371.848 49.3396 371.495 47.9824C370.928 45.8021 369.557 44.2571 368.891 42.2241" stroke="#143588" stroke-width="3" stroke-linecap="round"/>
</svg>
